<?xml version="1.0" standalone="no"?><!DOCTYPE svg PUBLIC "-//W3C//DTD SVG 1.1//EN" "http://www.w3.org/Graphics/SVG/1.1/DTD/svg11.dtd"><svg t="1626502737018" class="icon" viewBox="0 0 1024 1024" version="1.1" xmlns="http://www.w3.org/2000/svg" p-id="1998" xmlns:xlink="http://www.w3.org/1999/xlink" width="200" height="200"><defs><style type="text/css"></style></defs><path d="M388.266667 981.333333c-4.266667 0-12.8 0-17.066667-4.266666-12.8-8.533333-25.6-21.333333-25.6-38.4v-243.2c0-12.8 4.266667-21.333333 12.8-29.866667l311.466667-302.933333c17.066667-17.066667 42.666667-17.066667 59.733333 0 17.066667 17.066667 17.066667 42.666667 0 59.733333l-298.666667 290.133333v136.533334l102.4-81.066667c12.8-12.8 34.133333-12.8 51.2-4.266667l170.666667 106.666667 132.266667-708.266667L174.933333 512l106.666667 64c21.333333 12.8 25.6 38.4 12.8 59.733333-12.8 21.333333-38.4 25.6-59.733333 12.8l-170.666667-106.666666c-12.8-4.266667-21.333333-21.333333-21.333333-34.133334 0-17.066667 8.533333-29.866667 25.6-34.133333l853.333333-422.4c12.8-8.533333 29.866667-4.266667 42.666667 4.266667 12.8 8.533333 17.066667 25.6 17.066666 42.666666l-157.866666 853.333334c-4.266667 12.8-12.8 25.6-25.6 29.866666-12.8 4.266667-29.866667 4.266667-38.4-4.266666L558.933333 853.333333l-145.066666 119.466667c-8.533333 4.266667-17.066667 8.533333-25.6 8.533333z" p-id="1999"></path></svg>